G75*
%MOIN*%
%OFA0B0*%
%FSLAX24Y24*%
%IPPOS*%
%LPD*%
%AMOC8*
5,1,8,0,0,1.08239X$1,22.5*
%
%ADD10C,0.0060*%
%ADD11C,0.0030*%
%ADD12C,0.0000*%
%ADD13C,0.0040*%
%ADD14C,0.0050*%
%ADD15C,0.0080*%
%ADD16C,0.0250*%
%ADD17R,0.0660X0.0380*%
%ADD18C,0.0100*%
%ADD19R,0.0059X0.0118*%
%ADD20R,0.0118X0.0118*%
D10*
X010766Y007654D02*
X011016Y007404D01*
X011516Y007404D01*
X011766Y007654D01*
X012016Y007404D01*
X012516Y007404D01*
X012766Y007654D01*
X013016Y007404D01*
X013516Y007404D01*
X013766Y007654D01*
X014016Y007404D01*
X014516Y007404D01*
X014766Y007654D01*
X015016Y007404D01*
X015516Y007404D01*
X015766Y007654D01*
X016016Y007404D01*
X016516Y007404D01*
X016766Y007654D01*
X016766Y008154D01*
X016516Y008404D01*
X016016Y008404D01*
X015766Y008154D01*
X015516Y008404D01*
X015016Y008404D01*
X014766Y008154D01*
X014516Y008404D01*
X014016Y008404D01*
X013766Y008154D01*
X013516Y008404D01*
X013016Y008404D01*
X012766Y008154D01*
X012516Y008404D01*
X012016Y008404D01*
X011766Y008154D01*
X011516Y008404D01*
X011016Y008404D01*
X010766Y008154D01*
X010766Y007654D01*
X014147Y005758D02*
X014147Y005531D01*
X014204Y005474D01*
X014317Y005474D01*
X014374Y005531D01*
X014516Y005531D02*
X014572Y005474D01*
X014686Y005474D01*
X014742Y005531D01*
X014742Y005587D01*
X014686Y005644D01*
X014629Y005644D01*
X014686Y005644D02*
X014742Y005701D01*
X014742Y005758D01*
X014686Y005814D01*
X014572Y005814D01*
X014516Y005758D01*
X014374Y005758D02*
X014317Y005814D01*
X014204Y005814D01*
X014147Y005758D01*
X016199Y005442D02*
X016199Y005222D01*
X016519Y005222D01*
X016199Y006122D02*
X016199Y006342D01*
X016519Y006342D01*
X019762Y006350D02*
X019762Y006250D01*
X019862Y006250D01*
X020262Y006250D02*
X020362Y006250D01*
X020362Y006350D01*
X020362Y006750D02*
X020362Y006850D01*
X020262Y006850D01*
X019862Y006850D02*
X019762Y006850D01*
X019762Y006750D01*
X020773Y006758D02*
X020773Y006858D01*
X020873Y006858D01*
X021273Y006858D02*
X021373Y006858D01*
X021373Y006758D01*
X021373Y006358D02*
X021373Y006258D01*
X021273Y006258D01*
X020873Y006258D02*
X020773Y006258D01*
X020773Y006358D01*
X024199Y005359D02*
X024199Y004859D01*
X024449Y004609D01*
X024949Y004609D01*
X025199Y004859D01*
X025449Y004609D01*
X025949Y004609D01*
X026199Y004859D01*
X026449Y004609D01*
X026949Y004609D01*
X027199Y004859D01*
X027449Y004609D01*
X027949Y004609D01*
X028199Y004859D01*
X028199Y005359D01*
X027949Y005609D01*
X027449Y005609D01*
X027199Y005359D01*
X026949Y005609D01*
X026449Y005609D01*
X026199Y005359D01*
X025949Y005609D01*
X025449Y005609D01*
X025199Y005359D01*
X024949Y005609D01*
X024449Y005609D01*
X024199Y005359D01*
X024066Y015359D02*
X023716Y015359D01*
X023716Y015459D01*
X023416Y015459D01*
X023416Y015659D01*
X023316Y015459D02*
X023316Y016859D01*
X023766Y016859D01*
X026216Y016859D01*
X026216Y015459D01*
X026116Y015459D02*
X026116Y015659D01*
X026116Y015459D02*
X025816Y015459D01*
X025816Y015359D01*
X025516Y015359D01*
X025516Y015459D01*
X025066Y015459D01*
X025066Y015559D01*
X024466Y015559D01*
X024466Y015459D01*
X024066Y015459D01*
X024066Y015359D01*
X023416Y016259D02*
X023416Y016759D01*
X024516Y016759D01*
X024516Y016359D01*
X025016Y016359D01*
X025016Y016759D01*
X024516Y016759D01*
X024266Y016959D02*
X023766Y016959D01*
X023766Y016859D01*
X024266Y016959D02*
X024266Y017109D01*
X025266Y017109D01*
X025266Y016959D01*
X024266Y016959D01*
X025016Y016759D02*
X026116Y016759D01*
X026116Y016259D01*
X025766Y016859D02*
X025766Y016959D01*
X025266Y016959D01*
X011871Y016977D02*
X011444Y016977D01*
X011444Y017083D02*
X011444Y016870D01*
X011551Y016763D01*
X011764Y016763D01*
X011871Y016977D02*
X011871Y017083D01*
X011764Y017190D01*
X011551Y017190D01*
X011444Y017083D01*
X011227Y017190D02*
X011120Y017190D01*
X010907Y016977D01*
X010907Y017190D02*
X010907Y016763D01*
X010691Y016763D02*
X010477Y016763D01*
X010584Y016763D02*
X010584Y017190D01*
X010477Y017190D01*
X010260Y017190D02*
X010260Y016870D01*
X010153Y016763D01*
X010046Y016870D01*
X009939Y016763D01*
X009833Y016870D01*
X009833Y017190D01*
X009615Y016763D02*
X009188Y016763D01*
X009402Y016763D02*
X009402Y017404D01*
X009188Y017190D01*
X008326Y017083D02*
X008326Y016763D01*
X008326Y017083D02*
X008219Y017190D01*
X007899Y017190D01*
X007899Y016763D01*
X007683Y016763D02*
X007469Y016763D01*
X007576Y016763D02*
X007576Y017190D01*
X007469Y017190D01*
X007252Y017190D02*
X007038Y016763D01*
X006825Y017190D01*
X006502Y017404D02*
X006502Y016763D01*
X006395Y016763D02*
X006609Y016763D01*
X006177Y016977D02*
X006177Y017083D01*
X006071Y017190D01*
X005857Y017190D01*
X005750Y017083D01*
X005750Y016870D01*
X005857Y016763D01*
X006071Y016763D01*
X006177Y016977D02*
X005750Y016977D01*
X005533Y016763D02*
X005213Y017083D01*
X005106Y016977D02*
X005533Y017404D01*
X005106Y017404D02*
X005106Y016763D01*
X006395Y017404D02*
X006502Y017404D01*
X007576Y017404D02*
X007576Y017510D01*
X010584Y017510D02*
X010584Y017404D01*
D11*
X010594Y016411D02*
X010532Y016411D01*
X010409Y016288D01*
X010409Y016411D02*
X010409Y016164D01*
X010716Y016226D02*
X010716Y016350D01*
X010778Y016411D01*
X010901Y016411D01*
X010963Y016350D01*
X010963Y016288D01*
X010716Y016288D01*
X010716Y016226D02*
X010778Y016164D01*
X010901Y016164D01*
X011084Y016411D02*
X011208Y016164D01*
X011331Y016411D01*
X011821Y016411D02*
X011821Y016164D01*
X011821Y016350D02*
X012068Y016350D01*
X012068Y016411D02*
X012068Y016164D01*
X012068Y016411D02*
X011944Y016535D01*
X011821Y016411D01*
X020262Y007683D02*
X020447Y007683D01*
X020508Y007621D01*
X020508Y007498D01*
X020447Y007436D01*
X020262Y007436D01*
X020262Y007313D02*
X020262Y007683D01*
X020630Y007683D02*
X020630Y007313D01*
X020753Y007436D01*
X020877Y007313D01*
X020877Y007683D01*
X020998Y007683D02*
X021183Y007683D01*
X021245Y007621D01*
X021245Y007498D01*
X021183Y007436D01*
X020998Y007436D01*
X020998Y007313D02*
X020998Y007683D01*
X021122Y007436D02*
X021245Y007313D01*
X024101Y002071D02*
X024039Y002010D01*
X024039Y001763D01*
X024101Y001701D01*
X024225Y001701D01*
X024286Y001763D01*
X024408Y001701D02*
X024655Y001948D01*
X024655Y002010D01*
X024593Y002071D01*
X024470Y002071D01*
X024408Y002010D01*
X024286Y002010D02*
X024225Y002071D01*
X024101Y002071D01*
X024408Y001701D02*
X024655Y001701D01*
X022917Y001696D02*
X022917Y001510D01*
X022793Y001510D02*
X022793Y001696D01*
X022855Y001757D01*
X022917Y001696D01*
X022793Y001696D02*
X022731Y001757D01*
X022670Y001757D01*
X022670Y001510D01*
X022548Y001572D02*
X022548Y001696D01*
X022486Y001757D01*
X022363Y001757D01*
X022301Y001696D01*
X022301Y001572D01*
X022363Y001510D01*
X022486Y001510D01*
X022548Y001572D01*
X022180Y001510D02*
X021995Y001510D01*
X021933Y001572D01*
X021933Y001696D01*
X021995Y001757D01*
X022180Y001757D01*
X021811Y001572D02*
X021811Y001510D01*
X021749Y001510D01*
X021749Y001572D01*
X021811Y001572D01*
X021627Y001572D02*
X021566Y001634D01*
X021442Y001634D01*
X021381Y001696D01*
X021442Y001757D01*
X021627Y001757D01*
X021627Y001572D02*
X021566Y001510D01*
X021381Y001510D01*
X021258Y001510D02*
X021135Y001510D01*
X021197Y001510D02*
X021197Y001757D01*
X021135Y001757D01*
X021014Y001757D02*
X020828Y001757D01*
X020767Y001696D01*
X020767Y001572D01*
X020828Y001510D01*
X021014Y001510D01*
X021014Y001881D01*
X021197Y001881D02*
X021197Y001942D01*
X020645Y001696D02*
X020645Y001510D01*
X020460Y001510D01*
X020398Y001572D01*
X020460Y001634D01*
X020645Y001634D01*
X020645Y001696D02*
X020584Y001757D01*
X020460Y001757D01*
X020277Y001757D02*
X020215Y001757D01*
X020091Y001634D01*
X019970Y001634D02*
X019785Y001634D01*
X019723Y001572D01*
X019785Y001510D01*
X019970Y001510D01*
X019970Y001696D01*
X019908Y001757D01*
X019785Y001757D01*
X019602Y001696D02*
X019602Y001572D01*
X019540Y001510D01*
X019355Y001510D01*
X019355Y001387D02*
X019355Y001757D01*
X019540Y001757D01*
X019602Y001696D01*
X019233Y001757D02*
X019048Y001757D01*
X018986Y001696D01*
X019048Y001634D01*
X019172Y001634D01*
X019233Y001572D01*
X019172Y001510D01*
X018986Y001510D01*
X018865Y001510D02*
X018865Y001696D01*
X018803Y001757D01*
X018618Y001757D01*
X018618Y001510D01*
X018497Y001510D02*
X018497Y001696D01*
X018435Y001757D01*
X018312Y001757D01*
X018312Y001634D02*
X018250Y001572D01*
X018312Y001510D01*
X018497Y001510D01*
X018497Y001634D02*
X018312Y001634D01*
X018128Y001757D02*
X017943Y001757D01*
X017882Y001696D01*
X017882Y001572D01*
X017943Y001510D01*
X018128Y001510D01*
X018128Y001881D01*
X017760Y001696D02*
X017698Y001757D01*
X017575Y001757D01*
X017513Y001696D01*
X017513Y001572D01*
X017575Y001510D01*
X017698Y001510D01*
X017760Y001572D01*
X017760Y001696D01*
X017391Y001757D02*
X017330Y001757D01*
X017206Y001634D01*
X017206Y001757D02*
X017206Y001510D01*
X017085Y001510D02*
X016900Y001510D01*
X016838Y001572D01*
X016838Y001696D01*
X016900Y001757D01*
X017085Y001757D01*
X017085Y001449D01*
X017023Y001387D01*
X016961Y001387D01*
X015839Y001759D02*
X015592Y001759D01*
X015716Y001759D02*
X015716Y002129D01*
X015592Y002006D01*
X015471Y002068D02*
X015409Y002129D01*
X015286Y002129D01*
X015224Y002068D01*
X015224Y001821D01*
X015286Y001759D01*
X015409Y001759D01*
X015471Y001821D01*
X020091Y001757D02*
X020091Y001510D01*
X027062Y014293D02*
X027062Y014417D01*
X027062Y014355D02*
X027432Y014355D01*
X027432Y014293D02*
X027432Y014417D01*
X027432Y014539D02*
X027062Y014539D01*
X027432Y014786D01*
X027062Y014786D01*
X027062Y014907D02*
X027062Y015030D01*
X027062Y014969D02*
X027432Y014969D01*
X027432Y015030D02*
X027432Y014907D01*
X027062Y015153D02*
X027062Y015399D01*
X027062Y015276D02*
X027432Y015276D01*
D12*
X028817Y001003D02*
X000471Y001003D01*
X000471Y017538D01*
X028817Y017538D01*
X028817Y001003D01*
X025167Y007042D02*
X025169Y007092D01*
X025175Y007142D01*
X025185Y007192D01*
X025198Y007240D01*
X025215Y007288D01*
X025236Y007334D01*
X025260Y007378D01*
X025288Y007420D01*
X025319Y007460D01*
X025353Y007497D01*
X025390Y007532D01*
X025429Y007563D01*
X025470Y007592D01*
X025514Y007617D01*
X025560Y007639D01*
X025607Y007657D01*
X025655Y007671D01*
X025704Y007682D01*
X025754Y007689D01*
X025804Y007692D01*
X025855Y007691D01*
X025905Y007686D01*
X025955Y007677D01*
X026003Y007665D01*
X026051Y007648D01*
X026097Y007628D01*
X026142Y007605D01*
X026185Y007578D01*
X026225Y007548D01*
X026263Y007515D01*
X026298Y007479D01*
X026331Y007440D01*
X026360Y007399D01*
X026386Y007356D01*
X026409Y007311D01*
X026428Y007264D01*
X026443Y007216D01*
X026455Y007167D01*
X026463Y007117D01*
X026467Y007067D01*
X026467Y007017D01*
X026463Y006967D01*
X026455Y006917D01*
X026443Y006868D01*
X026428Y006820D01*
X026409Y006773D01*
X026386Y006728D01*
X026360Y006685D01*
X026331Y006644D01*
X026298Y006605D01*
X026263Y006569D01*
X026225Y006536D01*
X026185Y006506D01*
X026142Y006479D01*
X026097Y006456D01*
X026051Y006436D01*
X026003Y006419D01*
X025955Y006407D01*
X025905Y006398D01*
X025855Y006393D01*
X025804Y006392D01*
X025754Y006395D01*
X025704Y006402D01*
X025655Y006413D01*
X025607Y006427D01*
X025560Y006445D01*
X025514Y006467D01*
X025470Y006492D01*
X025429Y006521D01*
X025390Y006552D01*
X025353Y006587D01*
X025319Y006624D01*
X025288Y006664D01*
X025260Y006706D01*
X025236Y006750D01*
X025215Y006796D01*
X025198Y006844D01*
X025185Y006892D01*
X025175Y006942D01*
X025169Y006992D01*
X025167Y007042D01*
X025167Y011530D02*
X025169Y011580D01*
X025175Y011630D01*
X025185Y011680D01*
X025198Y011728D01*
X025215Y011776D01*
X025236Y011822D01*
X025260Y011866D01*
X025288Y011908D01*
X025319Y011948D01*
X025353Y011985D01*
X025390Y012020D01*
X025429Y012051D01*
X025470Y012080D01*
X025514Y012105D01*
X025560Y012127D01*
X025607Y012145D01*
X025655Y012159D01*
X025704Y012170D01*
X025754Y012177D01*
X025804Y012180D01*
X025855Y012179D01*
X025905Y012174D01*
X025955Y012165D01*
X026003Y012153D01*
X026051Y012136D01*
X026097Y012116D01*
X026142Y012093D01*
X026185Y012066D01*
X026225Y012036D01*
X026263Y012003D01*
X026298Y011967D01*
X026331Y011928D01*
X026360Y011887D01*
X026386Y011844D01*
X026409Y011799D01*
X026428Y011752D01*
X026443Y011704D01*
X026455Y011655D01*
X026463Y011605D01*
X026467Y011555D01*
X026467Y011505D01*
X026463Y011455D01*
X026455Y011405D01*
X026443Y011356D01*
X026428Y011308D01*
X026409Y011261D01*
X026386Y011216D01*
X026360Y011173D01*
X026331Y011132D01*
X026298Y011093D01*
X026263Y011057D01*
X026225Y011024D01*
X026185Y010994D01*
X026142Y010967D01*
X026097Y010944D01*
X026051Y010924D01*
X026003Y010907D01*
X025955Y010895D01*
X025905Y010886D01*
X025855Y010881D01*
X025804Y010880D01*
X025754Y010883D01*
X025704Y010890D01*
X025655Y010901D01*
X025607Y010915D01*
X025560Y010933D01*
X025514Y010955D01*
X025470Y010980D01*
X025429Y011009D01*
X025390Y011040D01*
X025353Y011075D01*
X025319Y011112D01*
X025288Y011152D01*
X025260Y011194D01*
X025236Y011238D01*
X025215Y011284D01*
X025198Y011332D01*
X025185Y011380D01*
X025175Y011430D01*
X025169Y011480D01*
X025167Y011530D01*
D13*
X026279Y012771D02*
X026509Y012771D01*
X026585Y012848D01*
X026585Y013155D01*
X026509Y013231D01*
X026279Y013231D01*
X026279Y012771D01*
X026739Y012771D02*
X027046Y012771D01*
X026892Y012771D02*
X026892Y013231D01*
X026739Y013078D01*
X023597Y013796D02*
X023290Y013796D01*
X023521Y014026D01*
X023521Y013566D01*
X023137Y013566D02*
X022830Y013566D01*
X022984Y013566D02*
X022984Y014026D01*
X022830Y013873D01*
X022677Y013949D02*
X022600Y014026D01*
X022446Y014026D01*
X022370Y013949D01*
X022370Y013643D01*
X022446Y013566D01*
X022600Y013566D01*
X022677Y013643D01*
X022693Y014614D02*
X022386Y014614D01*
X022310Y014690D01*
X022310Y014844D01*
X022386Y014920D01*
X022310Y015074D02*
X022310Y015381D01*
X022386Y015381D01*
X022693Y015074D01*
X022770Y015074D01*
X022693Y014920D02*
X022770Y014844D01*
X022770Y014690D01*
X022693Y014614D01*
X021846Y014793D02*
X021386Y014793D01*
X021386Y015024D01*
X021463Y015100D01*
X021616Y015100D01*
X021693Y015024D01*
X021693Y014793D01*
X021693Y014947D02*
X021846Y015100D01*
X021616Y015254D02*
X021616Y015561D01*
X021386Y015484D02*
X021616Y015254D01*
X021846Y015484D02*
X021386Y015484D01*
X020573Y013703D02*
X020573Y013243D01*
X020420Y013243D02*
X020727Y013243D01*
X020420Y013550D02*
X020573Y013703D01*
X020266Y013627D02*
X020266Y013320D01*
X020190Y013243D01*
X020036Y013243D01*
X019960Y013320D01*
X019960Y013627D01*
X020036Y013703D01*
X020190Y013703D01*
X020266Y013627D01*
X020113Y013396D02*
X020266Y013243D01*
X018052Y014368D02*
X018052Y014828D01*
X017822Y014598D01*
X018129Y014598D01*
X017668Y014751D02*
X017592Y014828D01*
X017438Y014828D01*
X017361Y014751D01*
X017361Y014444D01*
X017438Y014368D01*
X017592Y014368D01*
X017668Y014444D01*
X018045Y011884D02*
X017968Y011807D01*
X017968Y011500D01*
X018045Y011423D01*
X018199Y011423D01*
X018275Y011500D01*
X018429Y011500D02*
X018429Y011653D01*
X018659Y011653D01*
X018736Y011577D01*
X018736Y011500D01*
X018659Y011423D01*
X018505Y011423D01*
X018429Y011500D01*
X018429Y011653D02*
X018582Y011807D01*
X018736Y011884D01*
X018275Y011807D02*
X018199Y011884D01*
X018045Y011884D01*
X018040Y009834D02*
X017810Y009834D01*
X017810Y009373D01*
X017810Y009527D02*
X018040Y009527D01*
X018117Y009603D01*
X018117Y009757D01*
X018040Y009834D01*
X018270Y009757D02*
X018347Y009834D01*
X018500Y009834D01*
X018577Y009757D01*
X018577Y009680D01*
X018270Y009373D01*
X018577Y009373D01*
X018117Y009373D02*
X017963Y009527D01*
X019253Y009144D02*
X019253Y008684D01*
X019253Y008837D02*
X019483Y008837D01*
X019560Y008914D01*
X019560Y009068D01*
X019483Y009144D01*
X019253Y009144D01*
X019406Y008837D02*
X019560Y008684D01*
X019713Y008684D02*
X020020Y008684D01*
X019867Y008684D02*
X019867Y009144D01*
X019713Y008991D01*
X020174Y008991D02*
X020327Y009144D01*
X020327Y008684D01*
X020174Y008684D02*
X020481Y008684D01*
X017255Y008073D02*
X017255Y007920D01*
X017179Y007843D01*
X017179Y007690D02*
X017255Y007613D01*
X017255Y007459D01*
X017179Y007383D01*
X016872Y007383D01*
X016795Y007459D01*
X016795Y007613D01*
X016872Y007690D01*
X016872Y007843D02*
X016795Y007920D01*
X016795Y008073D01*
X016872Y008150D01*
X016948Y008150D01*
X017025Y008073D01*
X017102Y008150D01*
X017179Y008150D01*
X017255Y008073D01*
X017025Y008073D02*
X017025Y007996D01*
X016795Y007229D02*
X016795Y007076D01*
X016795Y007152D02*
X017255Y007152D01*
X017255Y007076D02*
X017255Y007229D01*
X017218Y006127D02*
X017448Y006127D01*
X017525Y006050D01*
X017525Y005743D01*
X017448Y005666D01*
X017218Y005666D01*
X017218Y006127D01*
X017678Y006050D02*
X017755Y006127D01*
X017908Y006127D01*
X017985Y006050D01*
X017985Y005973D01*
X017678Y005666D01*
X017985Y005666D01*
X018394Y005610D02*
X018394Y005150D01*
X018701Y005150D01*
X018855Y005150D02*
X019162Y005150D01*
X019008Y005150D02*
X019008Y005610D01*
X018855Y005457D01*
X017711Y004674D02*
X017634Y004674D01*
X017327Y004981D01*
X017250Y004981D01*
X017250Y004674D01*
X017711Y004521D02*
X017711Y004214D01*
X017711Y004367D02*
X017250Y004367D01*
X017404Y004214D01*
X017327Y004060D02*
X017481Y004060D01*
X017557Y003984D01*
X017557Y003754D01*
X017557Y003907D02*
X017711Y004060D01*
X017327Y004060D02*
X017250Y003984D01*
X017250Y003754D01*
X017711Y003754D01*
X015269Y004386D02*
X015269Y002496D01*
X014600Y001827D01*
X014364Y001827D01*
X013616Y001827D02*
X013380Y001827D01*
X012710Y002496D01*
X012710Y004386D01*
X013616Y004386D01*
X014364Y004386D02*
X015269Y004386D01*
X013616Y004268D02*
X013552Y004246D01*
X013489Y004219D01*
X013427Y004189D01*
X013368Y004156D01*
X013310Y004120D01*
X013254Y004080D01*
X013201Y004037D01*
X013150Y003992D01*
X013102Y003944D01*
X013057Y003893D01*
X013014Y003839D01*
X012975Y003783D01*
X012938Y003726D01*
X012905Y003666D01*
X012876Y003604D01*
X012850Y003541D01*
X012827Y003477D01*
X012808Y003411D01*
X012793Y003344D01*
X012782Y003277D01*
X012774Y003209D01*
X012770Y003141D01*
X012770Y003073D01*
X012774Y003005D01*
X012782Y002937D01*
X012793Y002870D01*
X012808Y002803D01*
X012827Y002737D01*
X012850Y002673D01*
X012876Y002610D01*
X012905Y002548D01*
X012938Y002488D01*
X012975Y002431D01*
X013014Y002375D01*
X013057Y002321D01*
X013102Y002270D01*
X013150Y002222D01*
X013201Y002177D01*
X013254Y002134D01*
X013310Y002094D01*
X013368Y002058D01*
X013427Y002025D01*
X013489Y001995D01*
X013552Y001968D01*
X013616Y001946D01*
X014364Y001946D02*
X014428Y001968D01*
X014491Y001995D01*
X014553Y002025D01*
X014612Y002058D01*
X014670Y002094D01*
X014726Y002134D01*
X014779Y002177D01*
X014830Y002222D01*
X014878Y002270D01*
X014923Y002321D01*
X014966Y002375D01*
X015005Y002431D01*
X015042Y002488D01*
X015075Y002548D01*
X015104Y002610D01*
X015130Y002673D01*
X015153Y002737D01*
X015172Y002803D01*
X015187Y002870D01*
X015198Y002937D01*
X015206Y003005D01*
X015210Y003073D01*
X015210Y003141D01*
X015206Y003209D01*
X015198Y003277D01*
X015187Y003344D01*
X015172Y003411D01*
X015153Y003477D01*
X015130Y003541D01*
X015104Y003604D01*
X015075Y003666D01*
X015042Y003726D01*
X015005Y003783D01*
X014966Y003839D01*
X014923Y003893D01*
X014878Y003944D01*
X014830Y003992D01*
X014779Y004037D01*
X014726Y004080D01*
X014670Y004120D01*
X014612Y004156D01*
X014553Y004189D01*
X014491Y004219D01*
X014428Y004246D01*
X014364Y004268D01*
X009530Y006056D02*
X009454Y005979D01*
X009300Y005979D01*
X009224Y006056D01*
X009070Y005979D02*
X008763Y005979D01*
X008917Y005979D02*
X008917Y006440D01*
X008763Y006286D01*
X008610Y006363D02*
X008533Y006440D01*
X008379Y006440D01*
X008303Y006363D01*
X008303Y006056D01*
X008379Y005979D01*
X008533Y005979D01*
X008610Y006056D01*
X009224Y006363D02*
X009300Y006440D01*
X009454Y006440D01*
X009530Y006363D01*
X009530Y006286D01*
X009454Y006209D01*
X009530Y006133D01*
X009530Y006056D01*
X009454Y006209D02*
X009377Y006209D01*
X007360Y006946D02*
X006900Y006946D01*
X006900Y007176D01*
X006977Y007253D01*
X007130Y007253D01*
X007207Y007176D01*
X007207Y006946D01*
X007207Y007099D02*
X007360Y007253D01*
X007360Y007406D02*
X007360Y007713D01*
X007360Y007560D02*
X006900Y007560D01*
X007054Y007406D01*
X007130Y007867D02*
X006900Y007867D01*
X006900Y008173D01*
X007054Y008097D02*
X007130Y008173D01*
X007284Y008173D01*
X007360Y008097D01*
X007360Y007943D01*
X007284Y007867D01*
X007130Y007867D02*
X007054Y008020D01*
X007054Y008097D01*
X007068Y008818D02*
X007068Y009278D01*
X006915Y009125D01*
X006761Y009201D02*
X006761Y009048D01*
X006685Y008971D01*
X006454Y008971D01*
X006454Y008818D02*
X006454Y009278D01*
X006685Y009278D01*
X006761Y009201D01*
X006608Y008971D02*
X006761Y008818D01*
X006915Y008818D02*
X007222Y008818D01*
X007375Y009048D02*
X007682Y009048D01*
X007605Y008818D02*
X007605Y009278D01*
X007375Y009048D01*
X006231Y008885D02*
X005924Y008885D01*
X005771Y008885D02*
X005464Y008885D01*
X005617Y008885D02*
X005617Y009345D01*
X005464Y009192D01*
X005310Y009268D02*
X005234Y009345D01*
X005080Y009345D01*
X005004Y009268D01*
X005004Y008961D01*
X005080Y008885D01*
X005234Y008885D01*
X005310Y008961D01*
X005924Y009192D02*
X006078Y009345D01*
X006078Y008885D01*
X004278Y008601D02*
X004278Y008447D01*
X004201Y008370D01*
X004278Y008217D02*
X004278Y007910D01*
X004278Y007757D02*
X004124Y007603D01*
X004124Y007680D02*
X004124Y007450D01*
X004278Y007450D02*
X003817Y007450D01*
X003817Y007680D01*
X003894Y007757D01*
X004048Y007757D01*
X004124Y007680D01*
X003971Y007910D02*
X003817Y008064D01*
X004278Y008064D01*
X003894Y008370D02*
X003817Y008447D01*
X003817Y008601D01*
X003894Y008677D01*
X003971Y008677D01*
X004048Y008601D01*
X004124Y008677D01*
X004201Y008677D01*
X004278Y008601D01*
X004048Y008601D02*
X004048Y008524D01*
X005222Y007278D02*
X005145Y007201D01*
X005145Y006895D01*
X005222Y006818D01*
X005375Y006818D01*
X005452Y006895D01*
X005606Y006818D02*
X005913Y006818D01*
X006066Y006818D02*
X006373Y007125D01*
X006373Y007201D01*
X006296Y007278D01*
X006143Y007278D01*
X006066Y007201D01*
X005759Y007278D02*
X005759Y006818D01*
X006066Y006818D02*
X006373Y006818D01*
X005759Y007278D02*
X005606Y007125D01*
X005452Y007201D02*
X005375Y007278D01*
X005222Y007278D01*
X008420Y007552D02*
X008420Y007782D01*
X008496Y007859D01*
X008650Y007859D01*
X008727Y007782D01*
X008727Y007552D01*
X008880Y007552D02*
X008420Y007552D01*
X008727Y007706D02*
X008880Y007859D01*
X008880Y008012D02*
X008880Y008319D01*
X008880Y008166D02*
X008420Y008166D01*
X008573Y008012D01*
X008650Y008473D02*
X008650Y008703D01*
X008727Y008780D01*
X008803Y008780D01*
X008880Y008703D01*
X008880Y008550D01*
X008803Y008473D01*
X008650Y008473D01*
X008496Y008626D01*
X008420Y008780D01*
X007002Y010170D02*
X006542Y010170D01*
X006542Y010400D01*
X006619Y010477D01*
X006772Y010477D01*
X006849Y010400D01*
X006849Y010170D01*
X006849Y010324D02*
X007002Y010477D01*
X007002Y010631D02*
X007002Y010937D01*
X007002Y010784D02*
X006542Y010784D01*
X006695Y010631D01*
X006619Y011091D02*
X006542Y011168D01*
X006542Y011321D01*
X006619Y011398D01*
X006695Y011398D01*
X007002Y011091D01*
X007002Y011398D01*
X006977Y011582D02*
X006823Y011582D01*
X006746Y011658D01*
X007053Y011965D01*
X007053Y011658D01*
X006977Y011582D01*
X006746Y011658D02*
X006746Y011965D01*
X006823Y012042D01*
X006977Y012042D01*
X007053Y011965D01*
X006593Y011582D02*
X006286Y011582D01*
X006440Y011582D02*
X006440Y012042D01*
X006286Y011889D01*
X006133Y011965D02*
X006056Y012042D01*
X005902Y012042D01*
X005826Y011965D01*
X005826Y011658D01*
X005902Y011582D01*
X006056Y011582D01*
X006133Y011658D01*
X004896Y011282D02*
X004896Y011128D01*
X004819Y011052D01*
X004512Y011359D01*
X004819Y011359D01*
X004896Y011282D01*
X004819Y011052D02*
X004512Y011052D01*
X004436Y011128D01*
X004436Y011282D01*
X004512Y011359D01*
X004896Y010898D02*
X004896Y010591D01*
X004896Y010438D02*
X004742Y010284D01*
X004742Y010361D02*
X004742Y010131D01*
X004896Y010131D02*
X004436Y010131D01*
X004436Y010361D01*
X004512Y010438D01*
X004666Y010438D01*
X004742Y010361D01*
X004589Y010591D02*
X004436Y010745D01*
X004896Y010745D01*
X004876Y013048D02*
X004416Y013048D01*
X004416Y013278D01*
X004493Y013355D01*
X004646Y013355D01*
X004723Y013278D01*
X004723Y013048D01*
X004723Y013202D02*
X004876Y013355D01*
X004876Y013509D02*
X004876Y013815D01*
X004876Y013662D02*
X004416Y013662D01*
X004569Y013509D01*
X006412Y013524D02*
X006412Y013831D01*
X006489Y013831D01*
X006796Y013524D01*
X006872Y013524D01*
X006872Y013371D02*
X006719Y013217D01*
X006719Y013294D02*
X006719Y013064D01*
X006872Y013064D02*
X006412Y013064D01*
X006412Y013294D01*
X006489Y013371D01*
X006642Y013371D01*
X006719Y013294D01*
X006656Y015674D02*
X006656Y015904D01*
X006579Y015981D01*
X006426Y015981D01*
X006349Y015904D01*
X006349Y015674D01*
X006809Y015674D01*
X006656Y015828D02*
X006809Y015981D01*
X006733Y016134D02*
X006809Y016211D01*
X006809Y016365D01*
X006733Y016441D01*
X006579Y016441D01*
X006502Y016365D01*
X006502Y016288D01*
X006579Y016134D01*
X006349Y016134D01*
X006349Y016441D01*
X001703Y016487D02*
X001703Y016794D01*
X001703Y016641D02*
X001243Y016641D01*
X001396Y016487D01*
X001319Y016947D02*
X001243Y017024D01*
X001243Y017178D01*
X001319Y017254D01*
X001396Y017254D01*
X001703Y016947D01*
X001703Y017254D01*
X011151Y013290D02*
X011151Y012830D01*
X011151Y012983D02*
X011381Y012983D01*
X011458Y013060D01*
X011458Y013213D01*
X011381Y013290D01*
X011151Y013290D01*
X011304Y012983D02*
X011458Y012830D01*
X011611Y012906D02*
X011688Y012830D01*
X011842Y012830D01*
X011918Y012906D01*
X011918Y012983D01*
X011842Y013060D01*
X011611Y013060D01*
X011611Y012906D01*
X011611Y013060D02*
X011765Y013213D01*
X011918Y013290D01*
X011906Y012617D02*
X011753Y012617D01*
X011676Y012540D01*
X011676Y012463D01*
X011753Y012387D01*
X011906Y012387D01*
X011983Y012310D01*
X011983Y012233D01*
X011906Y012156D01*
X011753Y012156D01*
X011676Y012233D01*
X011676Y012310D01*
X011753Y012387D01*
X011906Y012387D02*
X011983Y012463D01*
X011983Y012540D01*
X011906Y012617D01*
X011523Y012540D02*
X011446Y012617D01*
X011293Y012617D01*
X011216Y012540D01*
X011216Y012233D01*
X011293Y012156D01*
X011446Y012156D01*
X011523Y012233D01*
X011552Y015032D02*
X011399Y015032D01*
X011322Y015109D01*
X011322Y015416D01*
X011399Y015492D01*
X011552Y015492D01*
X011629Y015416D01*
X011782Y015492D02*
X011782Y015262D01*
X011936Y015339D01*
X012012Y015339D01*
X012089Y015262D01*
X012089Y015109D01*
X012012Y015032D01*
X011859Y015032D01*
X011782Y015109D01*
X011629Y015109D02*
X011552Y015032D01*
X011782Y015492D02*
X012089Y015492D01*
X026347Y015796D02*
X026347Y016256D01*
X026577Y016256D01*
X026654Y016179D01*
X026654Y016026D01*
X026577Y015949D01*
X026347Y015949D01*
X026500Y015949D02*
X026654Y015796D01*
X026807Y015872D02*
X026884Y015796D01*
X027037Y015796D01*
X027114Y015872D01*
X027114Y015949D01*
X027037Y016026D01*
X026960Y016026D01*
X027037Y016026D02*
X027114Y016103D01*
X027114Y016179D01*
X027037Y016256D01*
X026884Y016256D01*
X026807Y016179D01*
X023532Y006081D02*
X023379Y006081D01*
X023302Y006005D01*
X023149Y006081D02*
X022995Y006081D01*
X023072Y006081D02*
X023072Y005698D01*
X022995Y005621D01*
X022919Y005621D01*
X022842Y005698D01*
X023302Y005621D02*
X023609Y005928D01*
X023609Y006005D01*
X023532Y006081D01*
X023609Y005621D02*
X023302Y005621D01*
X024923Y003517D02*
X025592Y004186D01*
X027482Y004186D01*
X027482Y003280D01*
X027482Y002532D02*
X027482Y001627D01*
X025592Y001627D01*
X024923Y002296D01*
X024923Y002532D01*
X024923Y003280D02*
X024923Y003517D01*
X025041Y003280D02*
X025063Y003344D01*
X025090Y003407D01*
X025120Y003469D01*
X025153Y003528D01*
X025189Y003586D01*
X025229Y003642D01*
X025272Y003695D01*
X025317Y003746D01*
X025365Y003794D01*
X025416Y003839D01*
X025470Y003882D01*
X025526Y003921D01*
X025583Y003958D01*
X025643Y003991D01*
X025705Y004020D01*
X025768Y004046D01*
X025832Y004069D01*
X025898Y004088D01*
X025965Y004103D01*
X026032Y004114D01*
X026100Y004122D01*
X026168Y004126D01*
X026236Y004126D01*
X026304Y004122D01*
X026372Y004114D01*
X026439Y004103D01*
X026506Y004088D01*
X026572Y004069D01*
X026636Y004046D01*
X026699Y004020D01*
X026761Y003991D01*
X026821Y003958D01*
X026878Y003921D01*
X026934Y003882D01*
X026988Y003839D01*
X027039Y003794D01*
X027087Y003746D01*
X027132Y003695D01*
X027175Y003642D01*
X027215Y003586D01*
X027251Y003528D01*
X027284Y003469D01*
X027314Y003407D01*
X027341Y003344D01*
X027363Y003280D01*
X027363Y002532D02*
X027341Y002468D01*
X027314Y002405D01*
X027284Y002343D01*
X027251Y002284D01*
X027215Y002226D01*
X027175Y002170D01*
X027132Y002117D01*
X027087Y002066D01*
X027039Y002018D01*
X026988Y001973D01*
X026934Y001930D01*
X026878Y001891D01*
X026821Y001854D01*
X026761Y001821D01*
X026699Y001792D01*
X026636Y001766D01*
X026572Y001743D01*
X026506Y001724D01*
X026439Y001709D01*
X026372Y001698D01*
X026304Y001690D01*
X026236Y001686D01*
X026168Y001686D01*
X026100Y001690D01*
X026032Y001698D01*
X025965Y001709D01*
X025898Y001724D01*
X025832Y001743D01*
X025768Y001766D01*
X025705Y001792D01*
X025643Y001821D01*
X025583Y001854D01*
X025526Y001891D01*
X025470Y001930D01*
X025416Y001973D01*
X025365Y002018D01*
X025317Y002066D01*
X025272Y002117D01*
X025229Y002170D01*
X025189Y002226D01*
X025153Y002284D01*
X025120Y002343D01*
X025090Y002405D01*
X025063Y002468D01*
X025041Y002532D01*
X005911Y003056D02*
X005911Y003209D01*
X005911Y003132D02*
X005450Y003132D01*
X005450Y003056D02*
X005450Y003209D01*
X005527Y003363D02*
X005834Y003363D01*
X005911Y003439D01*
X005911Y003593D01*
X005834Y003670D01*
X005681Y003823D02*
X005681Y004130D01*
X005911Y004053D02*
X005450Y004053D01*
X005681Y003823D01*
X005527Y003670D02*
X005450Y003593D01*
X005450Y003439D01*
X005527Y003363D01*
X004511Y002109D02*
X004511Y001649D01*
X004664Y001649D02*
X004357Y001649D01*
X004127Y001725D02*
X004127Y002109D01*
X004050Y002109D02*
X004204Y002109D01*
X004357Y001955D02*
X004511Y002109D01*
X004127Y001725D02*
X004050Y001649D01*
X003974Y001649D01*
X003897Y001725D01*
X001703Y001672D02*
X001243Y001672D01*
X001396Y001519D01*
X001703Y001519D02*
X001703Y001826D01*
D14*
X001014Y001184D02*
X001014Y017451D01*
X003770Y017451D01*
X003770Y001184D01*
X001014Y001184D01*
X011081Y006854D02*
X011156Y006779D01*
X011306Y006779D01*
X011381Y006854D01*
X011381Y006929D01*
X011306Y007004D01*
X011081Y007004D01*
X011081Y006854D01*
X011081Y007004D02*
X011231Y007154D01*
X011381Y007229D01*
X011473Y008838D02*
X011548Y008838D01*
X011623Y008913D01*
X011623Y009289D01*
X011548Y009289D02*
X011698Y009289D01*
X011858Y009213D02*
X011934Y009289D01*
X012084Y009289D01*
X012159Y009213D01*
X012159Y009138D01*
X012084Y009063D01*
X012159Y008988D01*
X012159Y008913D01*
X012084Y008838D01*
X011934Y008838D01*
X011858Y008913D01*
X012009Y009063D02*
X012084Y009063D01*
X011473Y008838D02*
X011398Y008913D01*
X016081Y008879D02*
X016231Y009029D01*
X016231Y008579D01*
X016081Y008579D02*
X016381Y008579D01*
X021479Y006251D02*
X028337Y006251D01*
X028317Y006251D02*
X028317Y012321D01*
X021479Y012321D01*
X021479Y006251D01*
X023774Y005184D02*
X023924Y005334D01*
X023924Y004884D01*
X023774Y004884D02*
X024075Y004884D01*
X024481Y004439D02*
X024631Y004439D01*
X024556Y004439D02*
X024556Y004064D01*
X024481Y003989D01*
X024406Y003989D01*
X024331Y004064D01*
X024791Y004214D02*
X025091Y004214D01*
X025016Y003989D02*
X025016Y004439D01*
X024791Y004214D01*
X028324Y005109D02*
X028625Y005109D01*
X028550Y004884D02*
X028550Y005334D01*
X028324Y005109D01*
D15*
X017136Y009600D02*
X016936Y009900D01*
X016736Y009600D01*
X017136Y009600D01*
X017111Y009638D02*
X016761Y009638D01*
X016813Y009716D02*
X017058Y009716D01*
X017006Y009795D02*
X016865Y009795D01*
X016918Y009873D02*
X016954Y009873D01*
X016636Y009900D02*
X016636Y016900D01*
X013236Y016900D01*
X013236Y009900D01*
X014561Y009900D01*
X014563Y009938D01*
X014569Y009975D01*
X014578Y010012D01*
X014591Y010048D01*
X014608Y010082D01*
X014628Y010114D01*
X014651Y010144D01*
X014678Y010172D01*
X014706Y010197D01*
X014738Y010218D01*
X014771Y010237D01*
X014806Y010252D01*
X014842Y010263D01*
X014879Y010271D01*
X014917Y010275D01*
X014955Y010275D01*
X014993Y010271D01*
X015030Y010263D01*
X015066Y010252D01*
X015101Y010237D01*
X015134Y010218D01*
X015166Y010197D01*
X015194Y010172D01*
X015221Y010144D01*
X015244Y010114D01*
X015264Y010082D01*
X015281Y010048D01*
X015294Y010012D01*
X015303Y009975D01*
X015309Y009938D01*
X015311Y009900D01*
X016636Y009900D01*
X015719Y009529D02*
X015719Y009109D01*
X015859Y009109D02*
X015578Y009109D01*
X015398Y009179D02*
X015328Y009109D01*
X015188Y009109D01*
X015118Y009179D01*
X015118Y009459D01*
X015188Y009529D01*
X015328Y009529D01*
X015398Y009459D01*
X015578Y009389D02*
X015719Y009529D01*
X014951Y009529D02*
X014811Y009529D01*
X014881Y009529D02*
X014881Y009109D01*
X014811Y009109D02*
X014951Y009109D01*
X010571Y005651D02*
X010571Y001640D01*
D16*
X016436Y010150D03*
D17*
X010867Y004985D03*
X010867Y004315D03*
X010867Y003645D03*
X010867Y002975D03*
X010867Y002305D03*
D18*
X018832Y003206D02*
X020582Y002156D01*
X022082Y002156D01*
X023832Y003206D01*
X023832Y004706D02*
X022082Y005756D01*
X020582Y005756D01*
X018832Y004706D01*
X019832Y003256D02*
X019868Y003185D01*
X019907Y003115D01*
X019949Y003047D01*
X019994Y002981D01*
X020043Y002918D01*
X020095Y002857D01*
X020149Y002799D01*
X020206Y002743D01*
X020266Y002690D01*
X020328Y002640D01*
X020393Y002593D01*
X020460Y002549D01*
X020529Y002509D01*
X020600Y002472D01*
X020672Y002438D01*
X020746Y002408D01*
X020821Y002382D01*
X020898Y002359D01*
X020975Y002340D01*
X021054Y002325D01*
X021133Y002313D01*
X021212Y002305D01*
X021292Y002301D01*
X021372Y002301D01*
X021452Y002305D01*
X021531Y002313D01*
X021610Y002325D01*
X021689Y002340D01*
X021766Y002359D01*
X021843Y002382D01*
X021918Y002408D01*
X021992Y002438D01*
X022064Y002472D01*
X022135Y002509D01*
X022204Y002549D01*
X022271Y002593D01*
X022336Y002640D01*
X022398Y002690D01*
X022458Y002743D01*
X022515Y002799D01*
X022569Y002857D01*
X022621Y002918D01*
X022670Y002981D01*
X022715Y003047D01*
X022757Y003115D01*
X022796Y003185D01*
X022832Y003256D01*
X022832Y004656D02*
X022796Y004727D01*
X022757Y004797D01*
X022715Y004865D01*
X022670Y004931D01*
X022621Y004994D01*
X022569Y005055D01*
X022515Y005113D01*
X022458Y005169D01*
X022398Y005222D01*
X022336Y005272D01*
X022271Y005319D01*
X022204Y005363D01*
X022135Y005403D01*
X022064Y005440D01*
X021992Y005474D01*
X021918Y005504D01*
X021843Y005530D01*
X021766Y005553D01*
X021689Y005572D01*
X021610Y005587D01*
X021531Y005599D01*
X021452Y005607D01*
X021372Y005611D01*
X021292Y005611D01*
X021212Y005607D01*
X021133Y005599D01*
X021054Y005587D01*
X020975Y005572D01*
X020898Y005553D01*
X020821Y005530D01*
X020746Y005504D01*
X020672Y005474D01*
X020600Y005440D01*
X020529Y005403D01*
X020460Y005363D01*
X020393Y005319D01*
X020328Y005272D01*
X020266Y005222D01*
X020206Y005169D01*
X020149Y005113D01*
X020095Y005055D01*
X020043Y004994D01*
X019994Y004931D01*
X019949Y004865D01*
X019907Y004797D01*
X019868Y004727D01*
X019832Y004656D01*
D19*
X020491Y008345D03*
X020963Y008345D03*
X027554Y015495D03*
X028026Y015495D03*
D20*
X027790Y015495D03*
X020727Y008345D03*
M02*
