G75*
%MOIN*%
%OFA0B0*%
%FSLAX24Y24*%
%IPPOS*%
%LPD*%
%AMOC8*
5,1,8,0,0,1.08239X$1,22.5*
%
%ADD10C,0.0680*%
%ADD11OC8,0.0680*%
%ADD12C,0.0965*%
%ADD13C,0.0789*%
%ADD14R,0.0634X0.0634*%
%ADD15C,0.1379*%
%ADD16OC8,0.0710*%
%ADD17C,0.0476*%
%ADD18C,0.0516*%
%ADD19R,0.0476X0.0476*%
%ADD20C,0.0380*%
D10*
X011266Y007604D02*
X011266Y008204D01*
X012266Y008204D02*
X012266Y007604D01*
X013266Y007604D02*
X013266Y008204D01*
X014266Y008204D02*
X014266Y007604D01*
X015266Y007604D02*
X015266Y008204D01*
X016266Y008204D02*
X016266Y007604D01*
X024699Y005409D02*
X024699Y004809D01*
X025699Y004809D02*
X025699Y005409D01*
X026699Y005409D02*
X026699Y004809D01*
X027699Y004809D02*
X027699Y005409D01*
D11*
X025656Y015949D03*
X023876Y015949D03*
D12*
X023386Y014969D03*
X026146Y014969D03*
D13*
X002392Y001719D03*
X002392Y003097D03*
X002392Y004475D03*
X002392Y005853D03*
X002392Y007231D03*
X002392Y008609D03*
X002392Y009987D03*
X002392Y011365D03*
X002392Y012743D03*
X002392Y014121D03*
X002392Y015499D03*
X002392Y016877D03*
D14*
X022302Y011026D03*
X023317Y010522D03*
X022302Y010010D03*
X023317Y009530D03*
X022310Y009030D03*
X023314Y008530D03*
X022317Y008038D03*
X023317Y007534D03*
D15*
X025817Y007042D03*
X025817Y011530D03*
D16*
X021073Y006558D03*
X020062Y006550D03*
D17*
X021471Y010003D03*
X027971Y014503D03*
D18*
X015002Y003340D03*
D19*
X012660Y004314D03*
X009920Y007735D03*
X007006Y008404D03*
X004703Y009707D03*
X006849Y010333D03*
X007329Y012392D03*
X006731Y013010D03*
X009589Y012412D03*
X012286Y012144D03*
X014680Y012101D03*
X013684Y010436D03*
X016963Y009014D03*
X018573Y007880D03*
X018211Y007341D03*
X019459Y006609D03*
X020117Y007971D03*
X018979Y009550D03*
X017629Y012121D03*
X017585Y012688D03*
X017467Y013625D03*
X019353Y013219D03*
X021408Y013026D03*
X021447Y013963D03*
X018652Y015632D03*
X015865Y016514D03*
X012243Y015176D03*
X011377Y015688D03*
X011377Y016475D03*
X011113Y014605D03*
X005943Y014873D03*
X003266Y015373D03*
X004762Y006908D03*
X006810Y006317D03*
X022459Y003314D03*
D20*
X016471Y005003D03*
X015971Y006503D03*
X019971Y007503D03*
M02*
